<?xml version="1.0" encoding="UTF-8" standalone="no"?>
<svg
   xmlns:dc="http://purl.org/dc/elements/1.1/"
   xmlns:cc="http://creativecommons.org/ns#"
   xmlns:rdf="http://www.w3.org/1999/02/22-rdf-syntax-ns#"
   xmlns:svg="http://www.w3.org/2000/svg"
   xmlns="http://www.w3.org/2000/svg"
   id="svg6920"
   version="1.1"
   viewBox="0 0 107.40845 47.132927"
   height="47.132927mm"
   width="107.40845mm">
  <defs
     id="defs6914">
    <clipPath
       id="clipPath1653"
       clipPathUnits="userSpaceOnUse">
      <path
         id="path1651"
         d="m 516.973,367.222 h 13.1 v -10.537 h -13.1 z" />
    </clipPath>
    <clipPath
       id="clipPath1117"
       clipPathUnits="userSpaceOnUse">
      <path
         id="path1115"
         d="m 481.334,372.806 h 16.353 v -12.394 h -16.353 z" />
    </clipPath>
  </defs>
  <metadata
     id="metadata6917">
    <rdf:RDF>
      <cc:Work
         rdf:about="">
        <dc:format>image/svg+xml</dc:format>
        <dc:type
           rdf:resource="http://purl.org/dc/dcmitype/StillImage" />
        <dc:title></dc:title>
      </cc:Work>
    </rdf:RDF>
  </metadata>
  <g
     transform="translate(-93.481605,-7.3329929)"
     id="layer1">
    <g
       transform="matrix(0.49533622,0,0,-0.49533622,159.85986,11.89702)"
       id="g875">
      <path
         id="path877"
         style="fill:#04517d;fill-opacity:1;fill-rule:nonzero;stroke:none"
         d="m 0,0 c 0.368,0.233 0.664,0.511 0.848,0.837 0.21,0.331 0.345,0.7 0.406,1.093 0.013,0.388 0,0.821 -0.16,1.258 C 0.959,3.625 0.774,4.087 0.444,4.559 0.025,5.242 -0.578,5.876 -1.297,6.44 -1.96,7.027 -2.735,7.519 -3.621,7.959 -4.476,8.358 -5.354,8.703 -6.272,8.935 -7.174,9.149 -8.071,9.249 -8.945,9.203 -9.227,9.201 -9.486,9.201 -9.738,9.149 -9.973,9.122 -10.225,9.077 -10.421,9.023 c -0.221,-0.049 -0.43,-0.111 -0.627,-0.213 -0.196,-0.076 -0.381,-0.175 -0.536,-0.242 -0.367,-0.24 -0.669,-0.517 -0.921,-0.83 -0.193,-0.347 -0.362,-0.692 -0.424,-1.088 -0.044,-0.385 -0.031,-0.808 0.085,-1.267 0.112,-0.442 0.32,-0.928 0.627,-1.417 0.438,-0.675 1.083,-1.356 1.761,-1.949 0.718,-0.596 1.524,-1.101 2.42,-1.563 0.862,-0.408 1.802,-0.755 2.744,-0.977 0.901,-0.212 1.843,-0.304 2.704,-0.241 0.276,0.002 0.548,0.029 0.788,0.081 0.256,0.04 0.467,0.09 0.689,0.141 0.189,0.074 0.397,0.159 0.607,0.241 C -0.318,-0.221 -0.171,-0.123 0,0" />
    </g>
    <g
       transform="matrix(0.49533622,0,0,-0.49533622,176.24673,23.438653)"
       id="g879">
      <path
         id="path881"
         style="fill:#0381af;fill-opacity:1;fill-rule:nonzero;stroke:none"
         d="m 0,0 c 0.197,0.159 0.32,0.343 0.455,0.559 0.124,0.224 0.192,0.458 0.278,0.711 0.037,0.248 0.049,0.512 0,0.789 0,0.295 -0.112,0.578 -0.216,0.904 -0.21,0.585 -0.553,1.155 -0.988,1.702 -0.463,0.523 -1.04,1.021 -1.63,1.458 -0.628,0.437 -1.323,0.799 -2.017,1.1 -0.72,0.267 -1.475,0.47 -2.19,0.564 C -6.657,7.836 -6.996,7.848 -7.303,7.836 -7.635,7.829 -7.936,7.787 -8.225,7.718 -8.478,7.669 -8.73,7.586 -8.993,7.479 -9.185,7.346 -9.393,7.223 -9.578,7.081 -9.767,6.903 -9.941,6.72 -10.075,6.504 -10.235,6.307 -10.322,6.073 -10.376,5.815 -10.438,5.582 -10.45,5.292 -10.414,5.01 c 0,-0.276 0.061,-0.589 0.179,-0.892 0.195,-0.587 0.547,-1.204 1.027,-1.752 0.455,-0.521 1.015,-1.063 1.647,-1.494 0.652,-0.442 1.353,-0.836 2.066,-1.094 0.731,-0.314 1.493,-0.51 2.249,-0.584 0.371,-0.049 0.677,-0.049 1.002,-0.049 0.314,0.049 0.622,0.083 0.873,0.172 0.289,0.063 0.547,0.153 0.752,0.267 C -0.368,-0.292 -0.183,-0.172 0,0" />
    </g>
    <g
       transform="matrix(0.49533622,0,0,-0.49533622,168.70662,17.566094)"
       id="g883">
      <path
         id="path885"
         style="fill:#0381af;fill-opacity:1;fill-rule:nonzero;stroke:none"
         d="M 0,0 C 0.204,0.191 0.4,0.39 0.586,0.628 0.732,0.867 0.844,1.116 0.928,1.405 0.991,1.697 1.04,1.98 0.991,2.281 0.979,2.592 0.915,2.942 0.794,3.286 0.572,3.933 0.179,4.584 -0.326,5.195 -0.843,5.786 -1.489,6.386 -2.2,6.871 -2.901,7.375 -3.695,7.817 -4.562,8.157 -5.367,8.488 -6.252,8.728 -7.114,8.85 -7.518,8.906 -7.943,8.939 -8.343,8.939 -8.698,8.939 -9.067,8.906 -9.406,8.85 -9.745,8.788 -10.04,8.709 -10.315,8.592 -10.593,8.488 -10.85,8.358 -11.08,8.186 -11.336,8.009 -11.551,7.817 -11.724,7.593 -11.909,7.375 -12.031,7.105 -12.111,6.815 -12.203,6.548 -12.24,6.244 -12.203,5.927 c 0,-0.316 0.031,-0.636 0.147,-0.999 0.259,-0.695 0.61,-1.34 1.145,-1.948 0.515,-0.644 1.166,-1.241 1.904,-1.735 0.737,-0.543 1.561,-0.993 2.434,-1.318 0.845,-0.346 1.758,-0.585 2.638,-0.701 0.451,-0.055 0.842,-0.067 1.226,-0.067 0.366,0.012 0.736,0.054 1.05,0.135 0.339,0.06 0.646,0.165 0.929,0.27 C -0.497,-0.32 -0.238,-0.163 0,0" />
    </g>
    <g
       transform="matrix(0.49533622,0,0,-0.49533622,144.86485,12.521492)"
       id="g915">
      <path
         id="path917"
         style="fill:#077bb2;fill-opacity:1;fill-rule:nonzero;stroke:none"
         d="m 0,0 c 0.528,0.314 0.934,0.719 1.229,1.209 0.259,0.432 0.394,0.973 0.394,1.534 0,0.547 -0.135,1.127 -0.429,1.711 -0.285,0.64 -0.727,1.215 -1.293,1.815 -0.689,0.694 -1.495,1.303 -2.385,1.813 -0.891,0.511 -1.858,0.957 -2.853,1.26 -1.008,0.296 -2.011,0.505 -3.019,0.554 -0.973,0.068 -1.955,0 -2.81,-0.221 -0.136,-0.037 -0.25,-0.067 -0.362,-0.112 -0.112,-0.012 -0.233,-0.068 -0.343,-0.114 -0.099,-0.02 -0.21,-0.061 -0.308,-0.109 -0.08,-0.059 -0.204,-0.096 -0.284,-0.158 -0.579,-0.309 -1.025,-0.697 -1.332,-1.162 -0.329,-0.448 -0.493,-0.974 -0.543,-1.517 -0.013,-0.573 0.136,-1.209 0.399,-1.784 0.294,-0.642 0.72,-1.263 1.329,-1.884 0.689,-0.701 1.549,-1.341 2.449,-1.876 0.938,-0.541 1.927,-0.97 2.98,-1.272 1.032,-0.313 2.053,-0.492 3.087,-0.532 1.008,-0.054 1.962,0.04 2.82,0.301 0.137,0.046 0.228,0.09 0.339,0.133 0.111,0.052 0.221,0.064 0.333,0.11 0.098,0.056 0.22,0.096 0.301,0.145 C -0.205,-0.11 -0.099,-0.056 0,0" />
    </g>
    <g
       transform="matrix(0.49533622,0,0,-0.49533622,164.7421,21.97112)"
       id="g919">
      <path
         id="path921"
         style="fill:#009ec5;fill-opacity:1;fill-rule:nonzero;stroke:none"
         d="M 0,0 C 0.282,0.252 0.521,0.5 0.707,0.806 0.848,1.15 0.954,1.458 0.996,1.838 1.002,2.196 0.954,2.582 0.848,3.007 0.707,3.4 0.521,3.818 0.25,4.229 -0.129,4.848 -0.66,5.407 -1.279,5.909 -1.889,6.404 -2.54,6.839 -3.295,7.209 -4.015,7.553 -4.79,7.83 -5.559,7.989 -6.326,8.155 -7.084,8.235 -7.828,8.155 -8.062,8.119 -8.27,8.094 -8.478,8.052 -8.664,8.014 -8.885,7.965 -9.044,7.892 -9.229,7.854 -9.412,7.759 -9.586,7.676 -9.733,7.609 -9.88,7.511 -10.027,7.408 c -0.308,-0.224 -0.554,-0.5 -0.752,-0.797 -0.16,-0.306 -0.282,-0.642 -0.337,-1.001 -0.038,-0.366 0,-0.762 0.128,-1.162 0.099,-0.428 0.271,-0.851 0.578,-1.283 0.383,-0.632 0.91,-1.2 1.513,-1.726 0.627,-0.541 1.341,-0.979 2.071,-1.316 0.782,-0.359 1.594,-0.649 2.373,-0.812 0.781,-0.135 1.556,-0.215 2.295,-0.12 0.233,0.035 0.442,0.071 0.651,0.12 0.184,0.053 0.399,0.092 0.585,0.163 0.154,0.069 0.326,0.163 0.496,0.244 C -0.276,-0.188 -0.129,-0.108 0,0" />
    </g>
    <g
       transform="matrix(0.49533622,0,0,-0.49533622,155.50165,17.066004)"
       id="g923">
      <path
         id="path925"
         style="fill:#077bb2;fill-opacity:1;fill-rule:nonzero;stroke:none"
         d="M 0,0 C 0.376,0.254 0.702,0.536 0.91,0.903 1.125,1.247 1.249,1.625 1.31,2.061 1.377,2.456 1.335,2.916 1.217,3.359 1.114,3.823 0.91,4.315 0.622,4.776 0.179,5.492 -0.428,6.126 -1.111,6.728 -1.837,7.3 -2.631,7.828 -3.48,8.216 -4.357,8.652 -5.288,8.988 -6.214,9.175 -7.145,9.401 -8.07,9.489 -8.992,9.445 -9.251,9.42 -9.536,9.391 -9.793,9.353 -10.052,9.305 -10.26,9.261 -10.506,9.181 -10.734,9.125 -10.938,9.065 -11.134,8.969 -11.343,8.885 -11.54,8.816 -11.687,8.68 -12.104,8.43 -12.424,8.133 -12.67,7.792 -12.91,7.456 -13.077,7.06 -13.161,6.654 c -0.05,-0.418 -0.05,-0.861 0.055,-1.324 0.093,-0.468 0.288,-0.956 0.608,-1.448 0.436,-0.725 1.034,-1.426 1.752,-1.999 0.733,-0.612 1.594,-1.153 2.465,-1.57 0.905,-0.443 1.857,-0.753 2.823,-0.972 0.928,-0.203 1.918,-0.27 2.81,-0.203 0.276,0 0.546,0.043 0.779,0.105 0.259,0.056 0.505,0.116 0.72,0.182 0.209,0.085 0.417,0.175 0.608,0.248 C -0.344,-0.247 -0.147,-0.13 0,0" />
    </g>
    <g
       transform="matrix(0.49533622,0,0,-0.49533622,129.78399,16.632289)"
       id="g955">
      <path
         id="path957"
         style="fill:#04517d;fill-opacity:1;fill-rule:nonzero;stroke:none"
         d="m 0,0 c 0.037,0.027 0.061,0.049 0.061,0.049 0.049,0.024 0.049,0.024 0.087,0.046 0,0 0.049,0.006 0.049,0.025 0.018,0.012 0.05,0.012 0.062,0.024 0.779,0.47 1.32,1.073 1.621,1.725 C 2.188,2.526 2.299,3.252 2.164,3.987 2.066,4.723 1.72,5.497 1.162,6.244 0.647,6.99 -0.111,7.703 -1.071,8.386 -1.993,9.001 -2.999,9.56 -4.088,9.94 c -1.046,0.413 -2.208,0.702 -3.302,0.855 -1.131,0.147 -2.239,0.179 -3.26,0.062 -1.057,-0.129 -2.004,-0.381 -2.863,-0.805 -0.038,-0.006 -0.05,-0.039 -0.062,-0.039 l -0.062,-0.029 c 0,0 -0.061,-0.013 -0.061,-0.044 0,0 -0.013,-0.018 -0.061,-0.018 -0.832,-0.464 -1.409,-1.035 -1.783,-1.679 -0.362,-0.66 -0.509,-1.376 -0.425,-2.148 0.086,-0.777 0.425,-1.54 0.978,-2.345 0.545,-0.744 1.291,-1.5 2.312,-2.201 0.935,-0.664 2.04,-1.234 3.121,-1.623 1.159,-0.406 2.344,-0.695 3.461,-0.827 1.188,-0.117 2.315,-0.117 3.323,0.025 C -1.721,-0.729 -0.764,-0.42 0,0" />
    </g>
    <g
       transform="matrix(0.49533622,0,0,-0.49533622,161.76701,26.73234)"
       id="g959">
      <path
         id="path961"
         style="fill:#24aec6;fill-opacity:1;fill-rule:nonzero;stroke:none"
         d="M 0,0 C 0.368,0.294 0.631,0.633 0.798,1.066 0.958,1.463 0.996,1.906 0.971,2.36 0.909,2.824 0.774,3.305 0.528,3.803 0.257,4.281 -0.087,4.767 -0.56,5.244 -1.078,5.794 -1.721,6.267 -2.388,6.655 -3.051,7.039 -3.789,7.359 -4.514,7.56 -5.246,7.767 -5.99,7.879 -6.69,7.879 -7.422,7.879 -8.093,7.767 -8.688,7.56 -8.775,7.515 -8.868,7.479 -8.929,7.452 -9.021,7.4 -9.082,7.378 -9.143,7.338 -9.229,7.298 -9.31,7.236 -9.351,7.202 -9.432,7.159 -9.507,7.11 -9.569,7.079 -9.974,6.771 -10.25,6.439 -10.433,6.034 c -0.16,-0.412 -0.247,-0.839 -0.198,-1.316 0.038,-0.479 0.178,-0.971 0.441,-1.457 0.216,-0.497 0.579,-0.999 1.047,-1.466 0.541,-0.581 1.185,-1.048 1.905,-1.469 0.682,-0.402 1.453,-0.702 2.183,-0.923 0.75,-0.203 1.525,-0.298 2.213,-0.298 0.713,0.009 1.414,0.128 1.987,0.385 0.097,0.035 0.17,0.086 0.221,0.109 0.1,0.038 0.147,0.074 0.247,0.133 0.067,0.043 0.128,0.077 0.176,0.13 C -0.137,-0.102 -0.064,-0.049 0,0" />
    </g>
    <g
       transform="matrix(0.49533622,0,0,-0.49533622,153.14499,22.900123)"
       id="g963">
      <path
         id="path965"
         style="fill:#0381af;fill-opacity:1;fill-rule:nonzero;stroke:none"
         d="M 0,0 C 0.43,0.32 0.775,0.695 0.971,1.138 1.167,1.566 1.278,2.048 1.266,2.564 1.217,3.043 1.051,3.578 0.799,4.101 0.552,4.636 0.155,5.177 -0.351,5.693 -0.934,6.293 -1.616,6.81 -2.362,7.243 -3.161,7.677 -3.953,8.027 -4.789,8.26 -5.607,8.501 -6.475,8.647 -7.279,8.647 -8.08,8.673 -8.854,8.567 -9.561,8.34 -9.645,8.304 -9.757,8.26 -9.856,8.235 -9.942,8.18 -10.052,8.162 -10.138,8.113 -10.224,8.064 -10.285,8.027 -10.372,7.978 -10.445,7.932 -10.509,7.885 -10.58,7.824 -11.053,7.53 -11.387,7.176 -11.626,6.742 c -0.247,-0.449 -0.369,-0.926 -0.369,-1.436 0.036,-0.498 0.16,-1.038 0.405,-1.592 0.265,-0.547 0.652,-1.094 1.181,-1.624 0.579,-0.625 1.299,-1.172 2.065,-1.616 0.813,-0.444 1.638,-0.778 2.503,-1.02 0.842,-0.246 1.715,-0.369 2.54,-0.369 0.823,0 1.622,0.123 2.303,0.381 0.1,0.033 0.199,0.074 0.272,0.119 0.099,0.056 0.161,0.078 0.253,0.13 0.09,0.033 0.159,0.089 0.247,0.132 C -0.135,-0.104 -0.067,-0.036 0,0" />
    </g>
    <g
       transform="matrix(0.49533622,0,0,-0.49533622,142.27037,19.45714)"
       id="g967">
      <path
         id="path969"
         style="fill:#0381af;fill-opacity:1;fill-rule:nonzero;stroke:none"
         d="m 0,0 c 0.602,0.375 1.031,0.824 1.284,1.291 0.32,0.513 0.467,1.083 0.467,1.648 0,0.574 -0.111,1.187 -0.423,1.82 -0.297,0.604 -0.726,1.224 -1.293,1.84 -0.688,0.721 -1.486,1.316 -2.407,1.828 -0.899,0.534 -1.902,0.951 -2.922,1.237 -0.996,0.312 -2.043,0.481 -3.068,0.54 -1.014,0.014 -1.998,-0.081 -2.878,-0.336 -0.122,-0.028 -0.269,-0.097 -0.362,-0.13 -0.124,-0.042 -0.233,-0.089 -0.345,-0.134 -0.096,-0.032 -0.222,-0.083 -0.333,-0.151 -0.09,-0.024 -0.176,-0.087 -0.288,-0.148 -0.608,-0.344 -1.075,-0.763 -1.384,-1.266 -0.332,-0.479 -0.508,-1.046 -0.534,-1.635 -0.049,-0.581 0.061,-1.202 0.349,-1.861 0.285,-0.638 0.704,-1.275 1.322,-1.905 0.708,-0.76 1.527,-1.409 2.485,-1.924 0.947,-0.545 1.956,-0.941 2.993,-1.252 1.047,-0.277 2.122,-0.455 3.185,-0.461 1.021,-0.031 2.011,0.098 2.91,0.394 0.099,0.046 0.221,0.098 0.331,0.119 0.11,0.068 0.235,0.117 0.344,0.154 0.074,0.067 0.186,0.105 0.283,0.16 C -0.16,-0.111 -0.087,-0.061 0,0" />
    </g>
    <g
       transform="matrix(0.49533622,0,0,-0.49533622,115.60142,24.970331)"
       id="g987">
      <path
         id="path989"
         style="fill:#077bb2;fill-opacity:1;fill-rule:nonzero;stroke:none"
         d="M 0,0 C 0.167,0.098 0.35,0.214 0.493,0.325 0.682,0.436 0.817,0.534 0.977,0.663 1.114,0.768 1.255,0.903 1.403,1.038 1.512,1.161 1.661,1.29 1.77,1.432 2.404,2.187 2.753,3.006 2.859,3.862 2.901,4.69 2.737,5.569 2.33,6.412 1.931,7.238 1.293,8.042 0.43,8.815 c -0.836,0.738 -1.911,1.396 -3.154,1.983 -1.019,0.461 -2.085,0.811 -3.195,1.046 -1.088,0.239 -2.16,0.362 -3.224,0.375 -1.118,0.024 -2.113,-0.062 -3.115,-0.256 -0.979,-0.187 -1.876,-0.488 -2.675,-0.894 -0.209,-0.087 -0.376,-0.19 -0.541,-0.296 -0.197,-0.095 -0.351,-0.202 -0.517,-0.335 -0.154,-0.103 -0.319,-0.238 -0.474,-0.351 -0.122,-0.134 -0.262,-0.246 -0.399,-0.386 -0.695,-0.744 -1.088,-1.564 -1.23,-2.416 -0.128,-0.861 0.007,-1.756 0.449,-2.631 0.351,-0.884 1.014,-1.76 1.911,-2.537 0.867,-0.766 2.006,-1.497 3.327,-2.082 1.077,-0.454 2.146,-0.792 3.315,-1.043 1.105,-0.213 2.231,-0.324 3.356,-0.324 1.075,0 2.116,0.123 3.124,0.353 C -1.665,-0.757 -0.775,-0.419 0,0" />
    </g>
    <g
       transform="matrix(0.49533622,0,0,-0.49533622,151.83571,28.922619)"
       id="g991">
      <path
         id="path993"
         style="fill:#009ec5;fill-opacity:1;fill-rule:nonzero;stroke:none"
         d="m 0,0 c 0,0 0.025,0 0.06,0.013 0,0.04 0,0.04 0.026,0.04 0,0.013 0.036,0.013 0.036,0.013 0,0 0.025,0.036 0.025,0.059 0.487,0.398 0.817,0.89 1.002,1.406 0.128,0.538 0.105,1.133 0,1.708 C 0.977,3.825 0.694,4.422 0.246,4.981 -0.198,5.581 -0.781,6.105 -1.483,6.607 -2.183,7.105 -2.91,7.48 -3.707,7.75 -4.469,8.053 -5.27,8.225 -6.025,8.304 -6.8,8.372 -7.546,8.341 -8.232,8.201 -8.947,8.077 -9.562,7.825 -10.084,7.444 l -0.042,-0.006 c 0,-0.007 -0.007,-0.007 -0.019,-0.032 C -10.168,7.4 -10.168,7.4 -10.187,7.387 -10.194,7.376 -10.194,7.376 -10.219,7.346 -10.728,6.952 -11.048,6.465 -11.24,5.951 -11.423,5.411 -11.436,4.84 -11.33,4.23 c 0.14,-0.608 0.442,-1.211 0.871,-1.797 0.438,-0.605 1.021,-1.153 1.76,-1.687 0.695,-0.474 1.474,-0.884 2.293,-1.167 0.775,-0.288 1.572,-0.455 2.354,-0.541 0.793,-0.061 1.561,-0.011 2.263,0.154 C -1.137,-0.655 -0.518,-0.389 0,0" />
    </g>
    <g
       transform="matrix(0.49533622,0,0,-0.49533622,141.98967,26.626239)"
       id="g995">
      <path
         id="path997"
         style="fill:#009ec5;fill-opacity:1;fill-rule:nonzero;stroke:none"
         d="m 0,0 c 0,0 0.025,0.019 0.038,0.031 0,0 0.011,0.013 0.036,0.03 L 0.109,0.08 c 0,0 0.026,0.019 0.051,0.031 0.602,0.469 0.977,0.99 1.217,1.58 0.22,0.593 0.246,1.233 0.105,1.873 C 1.377,4.24 1.057,4.892 0.567,5.53 0.074,6.176 -0.541,6.778 -1.315,7.346 -2.109,7.861 -2.964,8.304 -3.831,8.636 -4.709,8.941 -5.638,9.162 -6.53,9.272 -7.414,9.349 -8.319,9.33 -9.111,9.182 -9.905,9.06 -10.673,8.789 -11.269,8.4 c -0.037,-0.017 -0.06,-0.034 -0.074,-0.053 0,0 -0.038,-0.019 -0.038,-0.032 0,0 -0.036,-0.011 -0.061,-0.035 h -0.012 c -0.682,-0.461 -1.106,-0.973 -1.333,-1.563 -0.29,-0.587 -0.351,-1.235 -0.229,-1.9 0.118,-0.677 0.426,-1.346 0.88,-2.015 0.511,-0.656 1.156,-1.295 1.972,-1.857 0.794,-0.579 1.68,-1.024 2.614,-1.351 0.892,-0.318 1.862,-0.521 2.761,-0.608 0.934,-0.086 1.802,-0.04 2.631,0.143 C -1.328,-0.709 -0.614,-0.406 0,0" />
    </g>
    <g
       transform="matrix(0.49533622,0,0,-0.49533622,129.65882,25.287395)"
       id="g999">
      <path
         id="path1001"
         style="fill:#077bb2;fill-opacity:1;fill-rule:nonzero;stroke:none"
         d="m 0,0 c 0,0 0.037,0.007 0.073,0.007 0.027,0.03 0.043,0.041 0.043,0.06 0.025,0 0.051,0.025 0.063,0.032 0,0 0.049,0.03 0.049,0.042 C 1.034,0.675 1.581,1.303 1.893,2.03 2.232,2.705 2.318,3.51 2.196,4.273 2.06,5.036 1.729,5.826 1.217,6.587 0.66,7.367 -0.111,8.09 -1.05,8.743 -1.981,9.4 -3.024,9.936 -4.088,10.305 c -1.094,0.41 -2.238,0.663 -3.357,0.773 -1.144,0.145 -2.267,0.133 -3.296,-0.055 -1.046,-0.172 -2.028,-0.449 -2.883,-0.928 -0.011,-0.024 -0.036,-0.036 -0.036,-0.056 0,0 -0.038,0 -0.063,-0.03 0,0 -0.036,-0.006 -0.061,-0.012 -0.023,-0.012 -0.023,-0.044 -0.023,-0.044 -0.855,-0.497 -1.447,-1.136 -1.821,-1.832 -0.369,-0.715 -0.517,-1.475 -0.407,-2.277 0.087,-0.808 0.384,-1.632 0.941,-2.404 0.554,-0.803 1.31,-1.59 2.325,-2.272 0.959,-0.67 2.054,-1.211 3.198,-1.61 1.129,-0.405 2.286,-0.65 3.447,-0.754 1.187,-0.08 2.289,-0.049 3.339,0.147 C -1.741,-0.858 -0.793,-0.532 0,0" />
    </g>
    <g
       transform="matrix(0.49533622,0,0,-0.49533622,103.67829,38.270058)"
       id="g1015">
      <path
         id="path1017"
         style="fill:#04517d;fill-opacity:1;fill-rule:nonzero;stroke:none"
         d="M 0,0 C 0.413,0.247 0.733,0.492 1.083,0.756 1.421,1.042 1.741,1.325 2.017,1.63 2.289,1.912 2.51,2.244 2.756,2.595 2.939,2.924 3.112,3.271 3.235,3.631 3.63,4.663 3.69,5.703 3.445,6.69 3.198,7.709 2.658,8.67 1.895,9.548 c -0.787,0.879 -1.789,1.675 -3,2.358 -1.229,0.664 -2.65,1.189 -4.212,1.538 -1.028,0.249 -2.046,0.377 -3.049,0.433 -1.008,0.056 -2.004,0.03 -3.002,-0.081 -0.957,-0.103 -1.893,-0.283 -2.747,-0.552 -0.897,-0.259 -1.71,-0.585 -2.458,-1.004 -0.42,-0.209 -0.806,-0.457 -1.175,-0.725 -0.363,-0.252 -0.682,-0.527 -0.977,-0.822 -0.284,-0.302 -0.578,-0.604 -0.807,-0.954 -0.233,-0.327 -0.448,-0.669 -0.595,-1.052 -0.468,-1.058 -0.56,-2.121 -0.356,-3.148 0.184,-1.085 0.718,-2.093 1.531,-3.024 0.781,-0.931 1.851,-1.786 3.127,-2.472 1.256,-0.713 2.761,-1.254 4.434,-1.567 1.076,-0.24 2.152,-0.364 3.16,-0.382 1.057,-0.036 2.122,0.018 3.086,0.154 0.984,0.148 1.899,0.387 2.76,0.677 C -1.517,-0.787 -0.699,-0.436 0,0" />
    </g>
    <g
       transform="matrix(0.49533622,0,0,-0.49533622,152.45682,34.899793)"
       id="g1019">
      <path
         id="path1021"
         style="fill:#24aec6;fill-opacity:1;fill-rule:nonzero;stroke:none"
         d="M 0,0 C 0.11,0.061 0.173,0.129 0.283,0.22 0.343,0.303 0.404,0.374 0.491,0.477 0.576,0.568 0.615,0.665 0.689,0.745 0.762,0.826 0.788,0.912 0.824,1.035 1.119,1.552 1.255,2.13 1.179,2.707 1.119,3.297 0.916,3.889 0.59,4.465 0.244,5.049 -0.191,5.597 -0.78,6.095 -1.366,6.581 -2.048,7.029 -2.845,7.386 -3.473,7.681 -4.113,7.885 -4.766,8.041 -5.416,8.155 -6.037,8.219 -6.671,8.204 -7.25,8.182 -7.827,8.098 -8.344,7.945 -8.896,7.779 -9.376,7.533 -9.77,7.214 -9.873,7.152 -9.953,7.078 -10.059,7.011 c -0.073,-0.074 -0.142,-0.161 -0.214,-0.24 -0.076,-0.068 -0.124,-0.169 -0.211,-0.27 -0.06,-0.112 -0.121,-0.185 -0.172,-0.295 -0.308,-0.504 -0.423,-1.088 -0.398,-1.684 0.06,-0.591 0.238,-1.174 0.57,-1.815 0.352,-0.553 0.82,-1.131 1.409,-1.66 0.583,-0.49 1.278,-0.974 2.103,-1.324 0.652,-0.287 1.309,-0.487 1.973,-0.635 0.658,-0.109 1.327,-0.162 1.93,-0.134 0.602,0.025 1.168,0.124 1.703,0.308 C -0.842,-0.582 -0.363,-0.321 0,0" />
    </g>
    <g
       transform="matrix(0.49533622,0,0,-0.49533622,142.80004,33.723468)"
       id="g1023">
      <path
         id="path1025"
         style="fill:#24aec6;fill-opacity:1;fill-rule:nonzero;stroke:none"
         d="m 0,0 c 0.112,0.074 0.215,0.153 0.294,0.233 0.1,0.063 0.179,0.18 0.277,0.259 0.086,0.102 0.172,0.191 0.222,0.282 0.085,0.097 0.141,0.214 0.241,0.308 0.299,0.573 0.471,1.2 0.429,1.848 C 1.412,3.563 1.253,4.206 0.878,4.839 0.535,5.484 0.031,6.072 -0.592,6.606 -1.229,7.147 -1.981,7.655 -2.853,8.048 -3.547,8.368 -4.28,8.589 -5.004,8.73 -5.711,8.897 -6.461,8.971 -7.145,8.958 -7.851,8.939 -8.515,8.848 -9.1,8.669 -9.72,8.496 -10.293,8.245 -10.747,7.926 -10.87,7.864 -10.962,7.777 -11.073,7.693 -11.16,7.6 -11.256,7.513 -11.355,7.427 -11.429,7.334 -11.528,7.25 -11.602,7.144 c -0.073,-0.095 -0.148,-0.191 -0.21,-0.306 -0.385,-0.573 -0.583,-1.209 -0.583,-1.851 0.025,-0.646 0.221,-1.306 0.572,-1.943 0.356,-0.667 0.849,-1.285 1.48,-1.839 0.672,-0.592 1.459,-1.082 2.333,-1.474 0.736,-0.32 1.498,-0.567 2.243,-0.708 0.731,-0.154 1.487,-0.196 2.189,-0.179 0.7,0.057 1.366,0.141 1.98,0.333 C -1.009,-0.608 -0.436,-0.344 0,0" />
    </g>
    <g
       transform="matrix(0.49533622,0,0,-0.49533622,132.05238,33.540439)"
       id="g1027">
      <path
         id="path1029"
         style="fill:#0381af;fill-opacity:1;fill-rule:nonzero;stroke:none"
         d="M 0,0 C 0.105,0.073 0.239,0.176 0.352,0.292 0.463,0.363 0.585,0.48 0.684,0.581 0.783,0.677 0.892,0.797 0.991,0.907 1.064,1.02 1.151,1.126 1.238,1.248 1.693,1.907 1.913,2.619 1.913,3.351 1.923,4.083 1.741,4.808 1.36,5.521 0.991,6.225 0.412,6.904 -0.289,7.532 c -0.689,0.62 -1.556,1.156 -2.57,1.61 -0.791,0.36 -1.647,0.661 -2.485,0.802 -0.829,0.192 -1.725,0.263 -2.512,0.246 -0.824,0 -1.63,-0.122 -2.373,-0.315 -0.744,-0.179 -1.408,-0.45 -2.011,-0.844 -0.122,-0.074 -0.24,-0.159 -0.362,-0.25 -0.137,-0.093 -0.24,-0.198 -0.363,-0.302 -0.11,-0.118 -0.222,-0.21 -0.309,-0.327 -0.121,-0.104 -0.208,-0.221 -0.307,-0.356 -0.478,-0.633 -0.73,-1.338 -0.781,-2.088 -0.025,-0.716 0.154,-1.49 0.518,-2.216 0.362,-0.731 0.938,-1.457 1.665,-2.084 0.708,-0.657 1.586,-1.217 2.668,-1.666 0.844,-0.38 1.734,-0.646 2.602,-0.818 0.89,-0.183 1.757,-0.24 2.588,-0.209 0.831,0.026 1.622,0.153 2.348,0.381 C -1.246,-0.694 -0.584,-0.369 0,0" />
    </g>
    <g
       transform="matrix(0.49533622,0,0,-0.49533622,118.77173,35.100998)"
       id="g1031">
      <path
         id="path1033"
         style="fill:#0381af;fill-opacity:1;fill-rule:nonzero;stroke:none"
         d="m 0,0 c 0.147,0.091 0.326,0.23 0.473,0.36 0.16,0.108 0.307,0.236 0.48,0.371 0.135,0.12 0.259,0.273 0.388,0.409 0.134,0.13 0.252,0.27 0.374,0.443 0.615,0.8 0.91,1.659 1.021,2.56 0.061,0.864 -0.134,1.781 -0.547,2.652 -0.426,0.856 -1.04,1.709 -1.937,2.454 -0.829,0.758 -1.869,1.426 -3.099,1.961 -1.044,0.455 -2.089,0.775 -3.14,0.972 -1.102,0.203 -2.177,0.291 -3.234,0.291 -1.059,-0.023 -2.048,-0.162 -3.051,-0.389 -0.928,-0.246 -1.821,-0.597 -2.612,-1.045 -0.185,-0.098 -0.339,-0.21 -0.541,-0.327 -0.141,-0.104 -0.314,-0.238 -0.474,-0.35 -0.16,-0.147 -0.32,-0.27 -0.424,-0.434 -0.16,-0.116 -0.308,-0.255 -0.431,-0.408 -0.687,-0.778 -1.075,-1.667 -1.174,-2.57 -0.122,-0.91 0.012,-1.835 0.413,-2.748 0.425,-0.91 1.07,-1.765 1.972,-2.577 0.88,-0.774 1.968,-1.471 3.271,-2.044 1.095,-0.44 2.19,-0.749 3.32,-0.97 1.108,-0.198 2.219,-0.253 3.297,-0.216 1.074,0.051 2.113,0.216 3.074,0.477 C -1.617,-0.859 -0.791,-0.474 0,0" />
    </g>
    <g
       transform="matrix(0.49533622,0,0,-0.49533622,145.47377,40.249025)"
       id="g1063">
      <path
         id="path1065"
         style="fill:#4bbec5;fill-opacity:1;fill-rule:nonzero;stroke:none"
         d="M 0,0 C 0.167,0.143 0.343,0.295 0.473,0.466 0.646,0.626 0.768,0.842 0.867,1.02 0.983,1.207 1.107,1.401 1.168,1.623 1.255,1.832 1.303,2.053 1.345,2.274 1.438,2.933 1.303,3.608 1.057,4.248 0.818,4.897 0.419,5.492 -0.125,6.059 -0.628,6.611 -1.255,7.11 -2.017,7.528 -2.735,7.95 -3.566,8.278 -4.475,8.505 -5.067,8.622 -5.613,8.717 -6.16,8.751 -6.714,8.764 -7.268,8.751 -7.77,8.666 -8.276,8.572 -8.737,8.45 -9.192,8.278 -9.615,8.117 -10.021,7.887 -10.379,7.626 c -0.166,-0.145 -0.35,-0.291 -0.509,-0.47 -0.154,-0.163 -0.284,-0.354 -0.414,-0.527 -0.121,-0.189 -0.239,-0.389 -0.306,-0.602 -0.103,-0.211 -0.153,-0.442 -0.179,-0.67 -0.134,-0.67 -0.061,-1.362 0.198,-1.989 0.233,-0.694 0.621,-1.315 1.156,-1.893 0.553,-0.597 1.229,-1.088 1.985,-1.506 0.738,-0.461 1.574,-0.781 2.534,-0.977 0.577,-0.166 1.173,-0.198 1.709,-0.228 0.565,-0.006 1.106,0.03 1.629,0.097 0.498,0.093 0.978,0.24 1.382,0.438 C -0.731,-0.512 -0.32,-0.256 0,0" />
    </g>
    <g
       transform="matrix(0.49533622,0,0,-0.49533622,135.42676,41.339561)"
       id="g1067">
      <path
         id="path1069"
         style="fill:#009ec5;fill-opacity:1;fill-rule:nonzero;stroke:none"
         d="M 0,0 C 0.21,0.169 0.399,0.333 0.578,0.528 0.775,0.726 0.909,0.904 1.065,1.131 1.218,1.352 1.321,1.555 1.433,1.816 1.513,2.043 1.599,2.283 1.647,2.532 1.795,3.277 1.721,4.006 1.446,4.721 1.187,5.448 0.775,6.117 0.21,6.738 c -0.579,0.624 -1.286,1.184 -2.09,1.63 -0.819,0.463 -1.758,0.839 -2.773,1.066 -0.665,0.167 -1.318,0.24 -1.932,0.263 -0.638,0.033 -1.266,0 -1.849,-0.096 -0.597,-0.078 -1.151,-0.235 -1.667,-0.406 -0.497,-0.204 -0.953,-0.452 -1.402,-0.733 -0.227,-0.178 -0.429,-0.353 -0.628,-0.535 -0.175,-0.196 -0.343,-0.399 -0.515,-0.595 -0.16,-0.227 -0.259,-0.443 -0.381,-0.674 -0.093,-0.258 -0.186,-0.503 -0.26,-0.755 -0.17,-0.72 -0.108,-1.502 0.112,-2.227 0.24,-0.722 0.664,-1.406 1.243,-2.066 0.577,-0.645 1.322,-1.204 2.169,-1.697 0.83,-0.473 1.813,-0.839 2.87,-1.06 0.666,-0.15 1.318,-0.243 1.994,-0.256 0.646,0 1.271,0.032 1.876,0.148 0.563,0.108 1.143,0.272 1.658,0.465 C -0.868,-0.572 -0.4,-0.316 0,0" />
    </g>
    <g
       transform="matrix(0.49533622,0,0,-0.49533622,124.38141,43.86607)"
       id="g1071">
      <path
         id="path1073"
         style="fill:#009ec5;fill-opacity:1;fill-rule:nonzero;stroke:none"
         d="M 0,0 C 0.27,0.206 0.493,0.416 0.744,0.644 0.971,0.851 1.175,1.122 1.351,1.369 1.537,1.608 1.703,1.879 1.838,2.143 1.954,2.414 2.034,2.728 2.126,3.016 2.324,3.871 2.3,4.712 2.034,5.519 1.789,6.349 1.322,7.144 0.695,7.837 c -0.658,0.719 -1.457,1.34 -2.416,1.886 -0.961,0.537 -2.034,0.954 -3.253,1.194 -0.769,0.172 -1.532,0.294 -2.28,0.307 -0.762,0.031 -1.52,-0.006 -2.218,-0.105 -0.704,-0.115 -1.38,-0.289 -2.007,-0.497 -0.637,-0.259 -1.205,-0.547 -1.703,-0.887 -0.295,-0.189 -0.564,-0.393 -0.804,-0.601 -0.259,-0.215 -0.475,-0.473 -0.682,-0.709 -0.173,-0.256 -0.339,-0.508 -0.486,-0.793 -0.168,-0.262 -0.276,-0.577 -0.382,-0.882 -0.246,-0.859 -0.246,-1.729 0,-2.575 0.214,-0.854 0.695,-1.66 1.364,-2.414 0.634,-0.736 1.488,-1.414 2.446,-1.976 0.998,-0.523 2.129,-0.957 3.394,-1.204 0.787,-0.166 1.607,-0.247 2.387,-0.253 0.775,-0.007 1.531,0.056 2.232,0.185 0.707,0.122 1.389,0.315 2.017,0.572 C -1.069,-0.657 -0.498,-0.351 0,0" />
    </g>
    <g
       transform="matrix(0.49533622,0,0,-0.49533622,111.03011,49.161663)"
       id="g1075">
      <path
         id="path1077"
         style="fill:#077bb2;fill-opacity:1;fill-rule:nonzero;stroke:none"
         d="M 0,0 C 0.377,0.265 0.733,0.514 1.034,0.809 1.366,1.116 1.635,1.416 1.87,1.75 2.141,2.075 2.355,2.406 2.54,2.765 2.737,3.12 2.878,3.471 3.014,3.862 3.335,4.934 3.335,6.016 3.076,7.061 2.798,8.069 2.256,9.044 1.513,9.935 c -0.78,0.876 -1.783,1.669 -2.964,2.315 -1.168,0.646 -2.558,1.168 -4.094,1.47 -0.961,0.195 -1.953,0.31 -2.92,0.337 -0.977,0.013 -1.955,-0.055 -2.859,-0.208 -0.922,-0.142 -1.812,-0.382 -2.667,-0.683 -0.851,-0.314 -1.606,-0.67 -2.32,-1.106 -0.379,-0.247 -0.756,-0.518 -1.07,-0.799 -0.342,-0.278 -0.669,-0.582 -0.938,-0.902 -0.278,-0.313 -0.535,-0.651 -0.759,-1.015 -0.226,-0.344 -0.399,-0.7 -0.563,-1.112 -0.394,-1.087 -0.468,-2.204 -0.223,-3.27 0.223,-1.082 0.77,-2.106 1.556,-3.041 0.793,-0.94 1.85,-1.771 3.104,-2.441 1.236,-0.676 2.712,-1.181 4.311,-1.482 1.044,-0.189 2.034,-0.275 3.049,-0.275 1.021,0 2.004,0.092 2.964,0.288 0.909,0.179 1.813,0.437 2.631,0.774 C -1.451,-0.873 -0.664,-0.47 0,0" />
    </g>
    <g
       transform="matrix(0.49533622,0,0,-0.49533622,140.36294,47.936449)"
       id="g1107">
      <path
         id="path1109"
         style="fill:#24aec6;fill-opacity:1;fill-rule:nonzero;stroke:none"
         d="M 0,0 C 0.297,0.234 0.56,0.523 0.771,0.826 1.01,1.12 1.175,1.44 1.309,1.787 1.434,2.116 1.52,2.477 1.556,2.832 1.581,3.213 1.581,3.589 1.478,3.987 1.342,4.714 1.027,5.408 0.56,6.063 0.087,6.718 -0.534,7.302 -1.242,7.778 -1.928,8.271 -2.759,8.688 -3.644,8.965 -4.492,9.243 -5.423,9.42 -6.4,9.438 -6.842,9.438 -7.277,9.42 -7.696,9.358 -8.121,9.297 -8.519,9.211 -8.932,9.088 -9.306,8.99 -9.671,8.855 -10.001,8.67 c -0.345,-0.172 -0.634,-0.363 -0.916,-0.593 -0.321,-0.243 -0.599,-0.505 -0.83,-0.806 -0.236,-0.283 -0.419,-0.619 -0.566,-0.947 -0.16,-0.328 -0.246,-0.695 -0.288,-1.054 -0.038,-0.378 -0.038,-0.777 0.016,-1.171 0.112,-0.751 0.419,-1.482 0.919,-2.152 0.47,-0.66 1.092,-1.275 1.799,-1.774 0.739,-0.509 1.611,-0.928 2.503,-1.211 0.897,-0.307 1.869,-0.443 2.84,-0.443 0.467,0 0.88,0.044 1.354,0.098 0.411,0.08 0.816,0.187 1.23,0.301 0.349,0.143 0.698,0.29 1.037,0.474 C -0.547,-0.41 -0.263,-0.214 0,0" />
    </g>
    <g
       transform="matrix(0.49533622,0,0,-0.49533622,-114.89155,231.14492)"
       id="g1111">
      <g
         id="g1113" />
      <g
         id="g1125">
        <g
           style="opacity:0.10000598"
           id="g1123"
           clip-path="url(#clipPath1117)">
          <g
             id="g1121"
             transform="translate(495.7166,362.1707)">
            <path
               id="path1119"
               style="fill:#24aec6;fill-opacity:1;fill-rule:nonzero;stroke:none"
               d="m 0,0 c 0.369,0.286 0.666,0.615 0.928,0.956 0.282,0.347 0.481,0.701 0.659,1.107 0.183,0.371 0.295,0.784 0.337,1.19 0.062,0.417 0.062,0.85 0,1.303 -0.105,0.829 -0.455,1.648 -0.947,2.378 -0.51,0.72 -1.156,1.366 -1.953,1.919 -0.807,0.551 -1.717,0.986 -2.695,1.304 -1.015,0.303 -2.097,0.479 -3.161,0.479 -0.552,0 -1.075,-0.019 -1.559,-0.108 C -8.89,10.46 -9.357,10.356 -9.818,10.24 -10.279,10.105 -10.692,9.918 -11.086,9.723 -11.509,9.52 -11.86,9.299 -12.211,9.035 -12.555,8.755 -12.917,8.453 -13.163,8.096 -13.465,7.784 -13.734,7.421 -13.894,7.027 -14.117,6.658 -14.252,6.246 -14.326,5.824 -14.387,5.385 -14.399,4.942 -14.361,4.5 c 0.109,-0.866 0.417,-1.684 0.934,-2.437 0.51,-0.76 1.192,-1.445 2.04,-2.015 0.813,-0.559 1.777,-1.026 2.779,-1.333 1.053,-0.307 2.171,-0.479 3.307,-0.473 0.543,0.023 1.053,0.074 1.549,0.148 0.519,0.067 0.967,0.189 1.434,0.355 0.423,0.148 0.878,0.346 1.242,0.548 C -0.669,-0.498 -0.314,-0.27 0,0" />
          </g>
        </g>
      </g>
    </g>
    <g
       transform="matrix(0.49533622,0,0,-0.49533622,200.64313,25.223643)"
       id="g1403">
      <path
         id="path1405"
         style="fill:#077bb2;fill-opacity:1;fill-rule:nonzero;stroke:none"
         d="m 0,0 c 0.039,0.073 0.113,0.135 0.125,0.215 0.086,0.068 0.122,0.147 0.147,0.234 0.061,0.062 0.09,0.16 0.109,0.252 0.026,0.098 0.051,0.173 0.087,0.271 0.08,0.529 0,1.105 -0.209,1.699 -0.22,0.579 -0.535,1.2 -0.983,1.768 -0.419,0.577 -0.967,1.169 -1.617,1.67 -0.633,0.536 -1.334,1.026 -2.109,1.398 -0.614,0.338 -1.236,0.579 -1.819,0.732 -0.604,0.159 -1.145,0.242 -1.661,0.242 -0.503,0 -0.996,-0.077 -1.389,-0.2 -0.413,-0.134 -0.775,-0.337 -1.015,-0.627 -0.048,-0.086 -0.125,-0.147 -0.141,-0.202 -0.08,-0.092 -0.153,-0.174 -0.192,-0.259 -0.035,-0.058 -0.048,-0.166 -0.109,-0.23 -0.012,-0.113 -0.038,-0.188 -0.074,-0.273 -0.086,-0.535 -0.038,-1.095 0.148,-1.703 0.183,-0.581 0.509,-1.211 0.97,-1.817 0.436,-0.609 1.002,-1.196 1.654,-1.756 0.639,-0.54 1.377,-1.021 2.183,-1.402 0.62,-0.319 1.243,-0.56 1.849,-0.722 0.592,-0.156 1.187,-0.218 1.705,-0.218 0.517,0 1.003,0.067 1.383,0.231 C -0.57,-0.548 -0.253,-0.307 0,0" />
    </g>
    <g
       transform="matrix(0.49533622,0,0,-0.49533622,187.98748,18.662273)"
       id="g1459">
      <path
         id="path1461"
         style="fill:#04517d;fill-opacity:1;fill-rule:nonzero;stroke:none"
         d="m 0,0 c 0.111,0.117 0.22,0.234 0.307,0.397 0.086,0.134 0.179,0.303 0.24,0.476 0.048,0.16 0.086,0.332 0.086,0.511 0.023,0.209 0.023,0.393 0,0.592 -0.063,0.606 -0.303,1.202 -0.671,1.816 -0.344,0.586 -0.836,1.191 -1.39,1.726 -0.57,0.553 -1.23,1.064 -1.966,1.518 -0.714,0.446 -1.489,0.812 -2.313,1.077 -0.535,0.174 -1.032,0.3 -1.512,0.373 -0.48,0.054 -0.922,0.066 -1.335,0.045 -0.404,-0.045 -0.804,-0.103 -1.143,-0.234 -0.33,-0.13 -0.627,-0.298 -0.855,-0.498 -0.147,-0.099 -0.269,-0.234 -0.349,-0.378 -0.093,-0.138 -0.173,-0.28 -0.266,-0.452 -0.061,-0.172 -0.085,-0.358 -0.103,-0.534 -0.031,-0.179 -0.031,-0.395 -0.031,-0.597 0.073,-0.591 0.289,-1.215 0.602,-1.824 0.356,-0.611 0.843,-1.224 1.438,-1.801 0.573,-0.549 1.254,-1.075 2,-1.546 0.737,-0.468 1.554,-0.844 2.378,-1.098 0.577,-0.159 1.057,-0.3 1.55,-0.347 0.498,-0.065 0.941,-0.065 1.37,-0.002 0.426,0.009 0.794,0.109 1.127,0.244 C -0.529,-0.393 -0.234,-0.215 0,0" />
    </g>
    <g
       transform="matrix(0.49533622,0,0,-0.49533622,193.40735,25.476368)"
       id="g1467">
      <path
         id="path1469"
         style="fill:#0381af;fill-opacity:1;fill-rule:nonzero;stroke:none"
         d="M 0,0 C 0.061,0.093 0.106,0.154 0.154,0.221 0.241,0.308 0.278,0.388 0.314,0.474 0.364,0.548 0.388,0.646 0.407,0.725 0.449,0.811 0.499,0.904 0.499,0.99 0.609,1.518 0.573,2.091 0.407,2.678 0.205,3.259 -0.108,3.892 -0.534,4.457 -0.957,5.048 -1.53,5.632 -2.151,6.158 -2.753,6.684 -3.486,7.145 -4.229,7.537 -4.876,7.87 -5.496,8.078 -6.079,8.245 -6.682,8.417 -7.273,8.483 -7.808,8.503 -8.342,8.516 -8.846,8.454 -9.234,8.306 c -0.455,-0.13 -0.831,-0.344 -1.113,-0.645 -0.048,-0.065 -0.121,-0.126 -0.176,-0.216 -0.063,-0.049 -0.125,-0.154 -0.173,-0.208 -0.05,-0.092 -0.099,-0.179 -0.135,-0.269 0,-0.08 -0.051,-0.174 -0.063,-0.272 -0.16,-0.529 -0.11,-1.101 0.063,-1.691 0.135,-0.596 0.459,-1.23 0.897,-1.824 C -9.479,2.587 -8.97,1.992 -8.33,1.445 -7.673,0.904 -6.928,0.419 -6.128,0 c 0.632,-0.31 1.278,-0.55 1.899,-0.711 0.64,-0.141 1.21,-0.226 1.727,-0.22 0.536,0 1.033,0.079 1.465,0.252 C -0.637,-0.528 -0.294,-0.31 0,0" />
    </g>
    <g
       transform="matrix(0.49533622,0,0,-0.49533622,174.33215,14.114146)"
       id="g1503">
      <path
         id="path1505"
         style="fill:#077bb2;fill-opacity:1;fill-rule:nonzero;stroke:none"
         d="M 0,0 C 0.232,0.167 0.392,0.364 0.545,0.607 0.686,0.824 0.779,1.067 0.823,1.341 0.914,1.617 0.926,1.906 0.914,2.208 0.866,2.499 0.779,2.857 0.67,3.166 0.392,3.803 0.004,4.442 -0.498,5.036 c -0.529,0.602 -1.17,1.174 -1.845,1.653 -0.701,0.498 -1.494,0.945 -2.301,1.289 -0.822,0.34 -1.677,0.585 -2.533,0.718 -0.406,0.061 -0.768,0.087 -1.169,0.087 -0.355,0 -0.681,0 -0.988,-0.055 -0.32,-0.047 -0.641,-0.126 -0.922,-0.238 -0.257,-0.109 -0.515,-0.242 -0.701,-0.389 -0.247,-0.167 -0.423,-0.334 -0.579,-0.562 -0.17,-0.247 -0.318,-0.478 -0.375,-0.745 -0.042,-0.246 -0.08,-0.542 -0.042,-0.849 0,-0.307 0.042,-0.632 0.186,-0.977 0.231,-0.658 0.614,-1.319 1.142,-1.917 0.542,-0.641 1.156,-1.218 1.912,-1.723 0.751,-0.51 1.536,-0.978 2.355,-1.328 0.868,-0.326 1.745,-0.569 2.588,-0.696 0.444,-0.058 0.835,-0.072 1.219,-0.063 0.368,0.005 0.686,0.034 0.983,0.096 0.318,0.08 0.596,0.147 0.878,0.268 C -0.431,-0.304 -0.197,-0.166 0,0" />
    </g>
    <g
       transform="matrix(0.49533622,0,0,-0.49533622,150.00574,46.591111)"
       id="g1639">
      <path
         id="path1641"
         style="fill:#70cfc2;fill-opacity:1;fill-rule:nonzero;stroke:none"
         d="M 0,0 C 0.281,0.223 0.496,0.497 0.669,0.77 0.848,1.044 0.97,1.327 1.082,1.631 1.203,1.955 1.239,2.262 1.239,2.603 1.239,2.928 1.203,3.304 1.117,3.645 0.957,4.318 0.65,4.958 0.221,5.539 -0.247,6.107 -0.8,6.623 -1.44,7.061 -2.085,7.49 -2.817,7.848 -3.604,8.099 -4.367,8.351 -5.184,8.487 -6.045,8.487 -6.432,8.518 -6.813,8.487 -7.12,8.438 -7.495,8.376 -7.847,8.3 -8.166,8.202 -8.467,8.09 -8.782,7.962 -9.051,7.81 -9.322,7.657 -9.592,7.49 -9.809,7.306 c -0.25,-0.226 -0.484,-0.472 -0.669,-0.738 -0.201,-0.275 -0.355,-0.547 -0.454,-0.86 -0.11,-0.31 -0.209,-0.646 -0.234,-0.983 0,-0.357 0,-0.71 0.124,-1.08 0.134,-0.679 0.459,-1.346 0.922,-1.912 0.436,-0.602 1.006,-1.131 1.678,-1.589 0.656,-0.451 1.431,-0.815 2.238,-1.054 0.794,-0.234 1.604,-0.4 2.49,-0.378 0.369,0 0.756,0.034 1.118,0.088 0.339,0.062 0.678,0.16 1.008,0.271 0.297,0.105 0.608,0.258 0.861,0.403 C -0.468,-0.366 -0.221,-0.207 0,0" />
    </g>
    <g
       transform="matrix(0.49533622,0,0,-0.49533622,-114.89155,231.14492)"
       id="g1647">
      <g
         id="g1649" />
      <g
         id="g1661">
        <g
           style="opacity:0.10000598"
           id="g1659"
           clip-path="url(#clipPath1653)">
          <g
             id="g1657"
             transform="translate(528.7375,358.196)">
            <path
               id="path1655"
               style="fill:#4bbec5;fill-opacity:1;fill-rule:nonzero;stroke:none"
               d="M 0,0 C 0.363,0.329 0.645,0.708 0.862,1.116 1.082,1.552 1.237,1.983 1.304,2.432 1.365,2.88 1.33,3.372 1.256,3.863 1.144,4.322 0.996,4.836 0.708,5.321 0.302,5.991 -0.22,6.613 -0.848,7.141 -1.45,7.645 -2.183,8.078 -2.97,8.402 -3.732,8.709 -4.574,8.917 -5.403,8.988 -6.264,9.069 -7.1,9.028 -7.931,8.811 -8.172,8.776 -8.39,8.709 -8.614,8.629 -8.823,8.536 -9.018,8.437 -9.228,8.356 -9.45,8.242 -9.61,8.14 -9.793,8.017 -9.978,7.884 -10.138,7.78 -10.311,7.623 -10.679,7.319 -10.999,6.944 -11.22,6.526 c -0.233,-0.4 -0.381,-0.852 -0.461,-1.303 -0.112,-0.484 -0.112,-0.962 0,-1.457 0.093,-0.479 0.252,-0.99 0.522,-1.475 0.369,-0.727 0.912,-1.357 1.562,-1.91 0.628,-0.528 1.354,-0.962 2.178,-1.273 0.767,-0.322 1.639,-0.529 2.507,-0.598 0.861,-0.059 1.721,0 2.55,0.221 0.241,0.082 0.481,0.131 0.696,0.236 0.216,0.092 0.431,0.197 0.614,0.286 0.204,0.107 0.406,0.208 0.56,0.356 C -0.307,-0.272 -0.147,-0.147 0,0" />
          </g>
        </g>
      </g>
    </g>
    <g
       transform="matrix(0.49533622,0,0,-0.49533622,181.41269,20.481545)"
       id="g1751">
      <path
         id="path1753"
         style="fill:#077bb2;fill-opacity:1;fill-rule:nonzero;stroke:none"
         d="M 0,0 C 0.152,0.11 0.282,0.25 0.368,0.393 0.484,0.534 0.535,0.718 0.618,0.872 0.682,1.038 0.705,1.222 0.743,1.41 0.779,1.616 0.779,1.817 0.779,2.026 0.705,2.631 0.51,3.242 0.196,3.832 -0.173,4.453 -0.634,5.057 -1.2,5.6 c -0.573,0.563 -1.242,1.079 -1.962,1.531 -0.743,0.452 -1.531,0.795 -2.367,1.067 -0.54,0.175 -1.056,0.28 -1.524,0.36 -0.53,0.061 -0.977,0.067 -1.433,0.025 -0.443,-0.025 -0.829,-0.105 -1.21,-0.222 -0.34,-0.139 -0.634,-0.31 -0.917,-0.517 -0.141,-0.113 -0.252,-0.243 -0.351,-0.412 -0.122,-0.135 -0.227,-0.283 -0.289,-0.445 -0.093,-0.16 -0.134,-0.376 -0.166,-0.532 -0.029,-0.197 -0.061,-0.421 -0.061,-0.612 0.044,-0.603 0.253,-1.241 0.58,-1.858 0.336,-0.632 0.791,-1.24 1.401,-1.816 0.552,-0.587 1.272,-1.131 2.027,-1.566 0.727,-0.45 1.537,-0.819 2.436,-1.089 0.541,-0.191 1.086,-0.295 1.567,-0.338 0.498,-0.062 0.979,-0.062 1.414,-0.025 0.425,0.049 0.849,0.147 1.2,0.295 C -0.524,-0.425 -0.227,-0.234 0,0" />
    </g>
  </g>
</svg>
