<?xml version="1.0" encoding="UTF-8" standalone="no"?>
<svg
   xmlns:dc="http://purl.org/dc/elements/1.1/"
   xmlns:cc="http://creativecommons.org/ns#"
   xmlns:rdf="http://www.w3.org/1999/02/22-rdf-syntax-ns#"
   xmlns:svg="http://www.w3.org/2000/svg"
   xmlns="http://www.w3.org/2000/svg"
   viewBox="0 0 394.63082 259.16232"
   height="259.16232"
   width="394.63083"
   xml:space="preserve"
   id="svg853"
   version="1.1"><metadata
     id="metadata859"><rdf:RDF><cc:Work
         rdf:about=""><dc:format>image/svg+xml</dc:format><dc:type
           rdf:resource="http://purl.org/dc/dcmitype/StillImage" /><dc:title></dc:title></cc:Work></rdf:RDF></metadata><defs
     id="defs857"><clipPath
       id="clipPath869"
       clipPathUnits="userSpaceOnUse"><path
         id="path867"
         d="M 0,595.276 H 841.89 V 0 H 0 Z" /></clipPath><clipPath
       id="clipPath893"
       clipPathUnits="userSpaceOnUse"><path
         id="path891"
         d="m 573.001,265.596 h 14.797 v -15.915 h -14.797 z" /></clipPath><clipPath
       id="clipPath933"
       clipPathUnits="userSpaceOnUse"><path
         id="path931"
         d="m 599.121,261.868 h 13.837 v -15.526 h -13.837 z" /></clipPath><clipPath
       id="clipPath1053"
       clipPathUnits="userSpaceOnUse"><path
         id="path1051"
         d="M 402.818,367.874 H 430.22 V 348.951 H 402.818 Z" /></clipPath><clipPath
       id="clipPath1097"
       clipPathUnits="userSpaceOnUse"><path
         id="path1095"
         d="m 399.061,323.386 h 30.151 v -22.788 h -30.151 z" /></clipPath><clipPath
       id="clipPath1117"
       clipPathUnits="userSpaceOnUse"><path
         id="path1115"
         d="m 481.334,372.806 h 16.353 v -12.394 h -16.353 z" /></clipPath><clipPath
       id="clipPath1133"
       clipPathUnits="userSpaceOnUse"><path
         id="path1131"
         d="m 457.67,363.038 h 19.615 V 348.331 H 457.67 Z" /></clipPath><clipPath
       id="clipPath1149"
       clipPathUnits="userSpaceOnUse"><path
         id="path1147"
         d="m 428.604,346.871 h 25.539 v -19.07 h -25.539 z" /></clipPath><clipPath
       id="clipPath1173"
       clipPathUnits="userSpaceOnUse"><path
         id="path1171"
         d="m 414.386,274.258 h 31.512 v -27.044 h -31.512 z" /></clipPath><clipPath
       id="clipPath1189"
       clipPathUnits="userSpaceOnUse"><path
         id="path1187"
         d="M 497.053,360.314 H 512.13 V 348.32 h -15.077 z" /></clipPath><clipPath
       id="clipPath1205"
       clipPathUnits="userSpaceOnUse"><path
         id="path1203"
         d="m 478.187,348.068 h 17.444 v -13.874 h -17.444 z" /></clipPath><clipPath
       id="clipPath1221"
       clipPathUnits="userSpaceOnUse"><path
         id="path1219"
         d="m 458.111,331.639 h 20.941 v -16.793 h -20.941 z" /></clipPath><clipPath
       id="clipPath1237"
       clipPathUnits="userSpaceOnUse"><path
         id="path1235"
         d="m 435.143,307.116 h 27.013 v -22.235 h -27.013 z" /></clipPath><clipPath
       id="clipPath1261"
       clipPathUnits="userSpaceOnUse"><path
         id="path1259"
         d="m 450.245,227.977 h 30.947 V 197.22 h -30.947 z" /></clipPath><clipPath
       id="clipPath1277"
       clipPathUnits="userSpaceOnUse"><path
         id="path1275"
         d="m 498.373,338.343 h 15.778 v -13.166 h -15.778 z" /></clipPath><clipPath
       id="clipPath1293"
       clipPathUnits="userSpaceOnUse"><path
         id="path1291"
         d="m 484.308,320.577 h 18.136 v -15.454 h -18.136 z" /></clipPath><clipPath
       id="clipPath1309"
       clipPathUnits="userSpaceOnUse"><path
         id="path1307"
         d="m 470.715,298.144 h 21.536 v -18.891 h -21.536 z" /></clipPath><clipPath
       id="clipPath1325"
       clipPathUnits="userSpaceOnUse"><path
         id="path1323"
         d="m 457.724,266.967 h 27.304 v -25.244 h -27.304 z" /></clipPath><clipPath
       id="clipPath1357"
       clipPathUnits="userSpaceOnUse"><path
         id="path1355"
         d="m 507.514,315.324 h 16.11 v -14.297 h -16.11 z" /></clipPath><clipPath
       id="clipPath1373"
       clipPathUnits="userSpaceOnUse"><path
         id="path1371"
         d="m 500.364,293.277 h 18.254 v -16.885 h -18.254 z" /></clipPath><clipPath
       id="clipPath1389"
       clipPathUnits="userSpaceOnUse"><path
         id="path1387"
         d="m 495.511,266.919 h 21.312 v -20.657 h -21.312 z" /></clipPath><clipPath
       id="clipPath1425"
       clipPathUnits="userSpaceOnUse"><path
         id="path1423"
         d="m 524.252,293.84 h 16.041 v -15.221 h -16.041 z" /></clipPath><clipPath
       id="clipPath1441"
       clipPathUnits="userSpaceOnUse"><path
         id="path1439"
         d="m 525.163,269.745 h 17.813 V 251.84 h -17.813 z" /></clipPath><clipPath
       id="clipPath1481"
       clipPathUnits="userSpaceOnUse"><path
         id="path1479"
         d="m 546.996,276.598 h 15.569 V 260.74 h -15.569 z" /></clipPath><clipPath
       id="clipPath1513"
       clipPathUnits="userSpaceOnUse"><path
         id="path1511"
         d="m 562.443,303.976 h 10.528 v -10.272 h -10.528 z" /></clipPath><clipPath
       id="clipPath1529"
       clipPathUnits="userSpaceOnUse"><path
         id="path1527"
         d="m 594.311,292.487 h 9.81 v -10.22 h -9.81 z" /></clipPath><clipPath
       id="clipPath1557"
       clipPathUnits="userSpaceOnUse"><path
         id="path1555"
         d="m 539.02,328.635 h 10.688 v -9.586 H 539.02 Z" /></clipPath><clipPath
       id="clipPath1581"
       clipPathUnits="userSpaceOnUse"><path
         id="path1579"
         d="m 564.457,286.771 h 13.598 v -13.835 h -13.598 z" /></clipPath><clipPath
       id="clipPath1601"
       clipPathUnits="userSpaceOnUse"><path
         id="path1599"
         d="m 585.306,280.035 h 13 V 266.27 h -13 z" /></clipPath><clipPath
       id="clipPath1617"
       clipPathUnits="userSpaceOnUse"><path
         id="path1615"
         d="m 605.535,278.897 h 12.268 v -13.401 h -12.268 z" /></clipPath><clipPath
       id="clipPath1653"
       clipPathUnits="userSpaceOnUse"><path
         id="path1651"
         d="m 516.973,367.222 h 13.1 v -10.537 h -13.1 z" /></clipPath><clipPath
       id="clipPath1673"
       clipPathUnits="userSpaceOnUse"><path
         id="path1671"
         d="m 515.293,350.617 h 13.692 v -11.394 h -13.692 z" /></clipPath><clipPath
       id="clipPath1693"
       clipPathUnits="userSpaceOnUse"><path
         id="path1691"
         d="m 519.485,332.463 h 14.069 v -12.227 h -14.069 z" /></clipPath><clipPath
       id="clipPath1713"
       clipPathUnits="userSpaceOnUse"><path
         id="path1711"
         d="m 529.666,314.48 h 14.199 V 301.5 h -14.199 z" /></clipPath><clipPath
       id="clipPath1733"
       clipPathUnits="userSpaceOnUse"><path
         id="path1731"
         d="m 545.156,298.668 h 14.027 v -13.563 h -14.027 z" /></clipPath></defs><g
     transform="matrix(1.3333333,0,0,-1.3333333,-642.73059,708.4291)"
     id="g861"><g
       id="g6716"
       transform="matrix(-1.2493466,0.64080992,-0.64080992,-1.2493466,558.02547,526.44621)"><path
         style="fill:#04517d;fill-opacity:1;fill-rule:nonzero;stroke:none"
         d="M 0,0 C 2.3290364,8.2158505 -3.8076409,22.137284 -13.908375,18.880875 -22.350432,12.877929 -18.905199,-1.9141899 -10.292453,-6.2042188 -5.6644104,-8.545574 -0.71856386,-4.6892728 0,0 Z"
         id="path6714" /></g><g
       id="g6728"
       transform="matrix(-1.2493466,0.64080992,-0.64080992,-1.2493466,1514.4309,308.94753)"><g
         id="g6718" /><g
         id="g6726"><g
           clip-path="url(#clipPath893)"
           id="g6724"
           style="opacity:0.10000598"><g
             transform="translate(586.7692,253.1065)"
             id="g6722"><path
               style="fill:#24aec6;fill-opacity:1;fill-rule:nonzero;stroke:none"
               d="M 0,0 C 6.7287621,10.753921 -14.115531,18.419628 -13.76,4.78 -13.955719,-2.2275368 -3.8033016,-6.9241829 0,0 Z"
               id="path6720" /></g></g></g></g><g
       id="g6732"
       transform="matrix(-1.2493466,0.64080992,-0.64080992,-1.2493466,613.18527,405.72292)"><path
         style="fill:#24aec6;fill-opacity:1;fill-rule:nonzero;stroke:none"
         d="M 0,0 C 6.3414333,10.489103 -12.927206,20.760348 -14.681,6.824 -16.30487,-1.4201915 -4.6978514,-8.9996742 0,0 Z"
         id="path6730" /></g><g
       id="g6736"
       transform="matrix(-1.2493466,0.64080992,-0.64080992,-1.2493466,602.09627,444.76812)"><path
         style="fill:#0381af;fill-opacity:1;fill-rule:nonzero;stroke:none"
         d="M 0,0 C 3.4318646,7.1841921 -3.4833293,18.918162 -11.928,14.834 -20.500726,9.5602543 -15.019053,-7.2309972 -4.607,-4.59 -2.4541667,-3.8774358 -0.86273676,-2.0394261 0,0 Z"
         id="path6734" /></g><g
       id="g6740"
       transform="matrix(-1.2493466,0.64080992,-0.64080992,-1.2493466,582.45427,488.31818)"><path
         style="fill:#0381af;fill-opacity:1;fill-rule:nonzero;stroke:none"
         d="M 0,0 C 2.4477923,7.4988788 -1.9015239,18.550407 -10.746,18.67075 -20.248088,16.857262 -20.150312,3.5990972 -14.775063,-2.4160156 -10.628692,-8.1617469 -1.957753,-7.2333595 0,0 Z"
         id="path6738" /></g><g
       id="g6752"
       transform="matrix(-1.2493466,0.64080992,-0.64080992,-1.2493466,1514.4309,308.94753)"><g
         id="g6742" /><g
         id="g6750"><g
           clip-path="url(#clipPath933)"
           id="g6748"
           style="opacity:0.10000598"><g
             transform="translate(612.1793,249.6853)"
             id="g6746"><path
               style="fill:#4bbec5;fill-opacity:1;fill-rule:nonzero;stroke:none"
               d="M 0,0 C 4.0242922,6.7566934 -6.1646723,16.792402 -11.73,9.745 -16.780938,3.3822212 -7.2741547,-7.8831492 -0.891,-1.391 l 0.467,0.671 z"
               id="path6744" /></g></g></g></g><g
       id="g6756"
       transform="matrix(-1.2493466,0.64080992,-0.64080992,-1.2493466,575.98537,421.56569)"><path
         style="fill:#009ec5;fill-opacity:1;fill-rule:nonzero;stroke:none"
         d="M 0,0 C 3.8219851,7.2082214 -6.7865444,18.374862 -12.591,10.402 -17.49743,3.5772084 -7.6134587,-8.8826108 -0.916,-1.56 l 0.522,0.741 z"
         id="path6754" /></g><g
       id="g6760"
       transform="matrix(-1.2493466,0.64080992,-0.64080992,-1.2493466,558.06897,453.19739)"><path
         style="fill:#009ec5;fill-opacity:1;fill-rule:nonzero;stroke:none"
         d="M 0,0 C 3.6689407,7.7533807 -7.5757707,20.421764 -13.76,11.4 -18.139515,4.275224 -9.2401344,-9.2282432 -1.469,-2.531 -0.80437708,-1.8058109 -0.31163435,-0.93094436 0,0 Z"
         id="path6758" /></g><g
       id="g6764"
       transform="matrix(-1.2493466,0.64080992,-0.64080992,-1.2493466,532.77187,485.04481)"><path
         style="fill:#077bb2;fill-opacity:1;fill-rule:nonzero;stroke:none"
         d="M 0,0 C 2.3512197,7.6680416 -5.1185883,20.417771 -13.865,15.535 -20.402805,8.799461 -14.608599,-5.6743869 -4.998,-5.238 -2.3701244,-4.8299595 -0.61474667,-2.4207393 0,0 Z"
         id="path6762" /></g><g
       id="g6768"
       transform="matrix(-1.2493466,0.64080992,-0.64080992,-1.2493466,558.86077,398.92669)"><path
         style="fill:#24aec6;fill-opacity:1;fill-rule:nonzero;stroke:none"
         d="m 0,0 c 3.4241863,6.4902399 -6.6077827,16.187083 -11.503,8.956 -4.082779,-6.4069145 5.9929009,-16.8573103 11.169,-9.585 l 0.192,0.308 z"
         id="path6766" /></g><g
       id="g6772"
       transform="matrix(-1.2493466,0.64080992,-0.64080992,-1.2493466,540.31107,424.0813)"><path
         style="fill:#24aec6;fill-opacity:1;fill-rule:nonzero;stroke:none"
         d="m 0,0 c 3.1422905,6.7238255 -7.1993649,17.292315 -12.124,9.407 -3.867438,-6.6533034 6.5369416,-18.0229512 11.8,-10.113 l 0.17,0.339 z"
         id="path6770" /></g><g
       id="g6776"
       transform="matrix(-1.2493466,0.64080992,-0.64080992,-1.2493466,518.86412,446.60091)"><path
         style="fill:#0381af;fill-opacity:1;fill-rule:nonzero;stroke:none"
         d="M 0,0 C 2.996494,7.0262686 -7.9315421,18.737388 -12.985,10.108 -16.713279,3.0842218 -5.6927357,-9.4785074 -0.259,-0.788 l 0.154,0.393 z"
         id="path6774" /></g><g
       id="g6780"
       transform="matrix(-1.2493466,0.64080992,-0.64080992,-1.2493466,491.98154,466.61047)"><path
         d="m 0,0 c 0.209,0.946 0.285,1.93 0.186,2.976 -0.074,1.016 -0.289,2.067 -0.634,3.132 -0.301,1.044 -0.781,2.093 -1.37,3.04 -0.56,1.011 -1.255,1.927 -2.011,2.758 -0.935,0.935 -1.882,1.684 -2.871,2.176 -0.935,0.51 -1.918,0.799 -2.842,0.862 -0.939,0.056 -1.801,-0.122 -2.581,-0.511 -0.775,-0.389 -1.457,-1.047 -1.975,-1.913 -0.072,-0.125 -0.147,-0.248 -0.208,-0.386 -0.049,-0.117 -0.1,-0.266 -0.171,-0.375 -0.038,-0.132 -0.075,-0.285 -0.147,-0.421 -0.038,-0.142 -0.099,-0.274 -0.111,-0.432 -0.272,-0.896 -0.346,-1.881 -0.32,-2.925 0.025,-1.03 0.208,-2.128 0.54,-3.192 0.32,-1.083 0.787,-2.17 1.348,-3.185 0.602,-1.032 1.278,-1.996 2.107,-2.857 0.941,-1.002 1.968,-1.77 2.977,-2.297 1.008,-0.536 2.01,-0.828 2.968,-0.866 0.928,-0.015 1.846,0.181 2.612,0.658 0.765,0.441 1.409,1.148 1.889,2.074 0.08,0.133 0.141,0.246 0.221,0.406 0.032,0.129 0.093,0.294 0.143,0.411 0.042,0.147 0.103,0.3 0.122,0.424 C -0.067,-0.29 -0.042,-0.13 0,0"
         style="fill:#04517d;fill-opacity:1;fill-rule:nonzero;stroke:none"
         id="path6778" /></g><g
       id="g6784"
       transform="matrix(-1.2493466,0.64080992,-0.64080992,-1.2493466,530.15287,398.11023)"><path
         style="fill:#4bbec5;fill-opacity:1;fill-rule:nonzero;stroke:none"
         d="M 0,0 C 2.4804898,5.6825838 -5.3411172,14.460492 -10.511125,9.193 -14.286011,3.8729259 -7.2307317,-5.8543415 -1.255,-1.793 l 0.7115,0.802 z"
         id="path6782" /></g><g
       id="g6788"
       transform="matrix(-1.2493466,0.64080992,-0.64080992,-1.2493466,509.39365,415.0988)"><path
         style="fill:#009ec5;fill-opacity:1;fill-rule:nonzero;stroke:none"
         d="M 0,0 C 2.2907636,5.6942636 -5.696802,15.077076 -10.926125,9.527625 -14.483221,3.9852697 -7.2579864,-6.1276497 -1.124,-1.912 l 0.652375,0.84275 z"
         id="path6786" /></g><g
       id="g6792"
       transform="matrix(-1.2493466,0.64080992,-0.64080992,-1.2493466,487.173,428.602)"><path
         d="M 0,0 C 0,0 0,0.025 0.049,0.052 V 0.1 c 0,0 0.025,0.037 0.025,0.061 0,0.017 0,0.017 0.023,0.062 C 0.289,1.084 0.301,2.041 0.161,3.036 0,3.982 -0.246,4.984 -0.672,5.918 c -0.422,0.946 -0.956,1.834 -1.603,2.656 -0.676,0.815 -1.403,1.533 -2.244,2.118 -0.836,0.56 -1.662,0.953 -2.423,1.169 -0.787,0.181 -1.543,0.181 -2.244,0.048 -0.683,-0.164 -1.285,-0.496 -1.826,-0.985 C -11.515,10.427 -11.934,9.79 -12.167,8.97 -12.18,8.944 -12.18,8.932 -12.197,8.924 V 8.87 l -0.044,-0.047 c 0,-0.015 -0.012,-0.033 -0.012,-0.045 -0.203,-0.851 -0.26,-1.814 -0.142,-2.792 0.122,-0.996 0.381,-1.988 0.794,-2.95 0.393,-0.982 0.952,-1.916 1.636,-2.777 0.632,-0.832 1.431,-1.58 2.305,-2.176 0.829,-0.584 1.678,-0.984 2.49,-1.165 0.823,-0.209 1.592,-0.209 2.293,-0.006 0.681,0.157 1.291,0.508 1.812,1.021 C -0.578,-1.546 -0.197,-0.853 0,0"
         style="fill:#077bb2;fill-opacity:1;fill-rule:nonzero;stroke:none"
         id="path6790" /></g><g
       id="g6796"
       transform="matrix(-1.2493466,0.64080992,-0.64080992,-1.2493466,505.60324,388.28465)"><path
         style="fill:#24aec6;fill-opacity:1;fill-rule:nonzero;stroke:none"
         d="M 0,0 C 2.8031459,6.1261557 -8.2124621,14.799332 -10.764,6.581 -11.96644,1.3236113 -3.6025315,-6.6582233 0,0 Z"
         id="path6794" /></g><g
       id="g6800"
       transform="matrix(-1.2493466,0.64080992,-0.64080992,-1.2493466,484.75183,397.43763)"><path
         style="fill:#0381af;fill-opacity:1;fill-rule:nonzero;stroke:none"
         d="M 0,0 C 2.5102929,6.1769876 -8.6685009,15.212953 -11.018,6.734 -11.990114,1.5632423 -3.5990019,-6.8783321 0,0 Z"
         id="path6798" /></g><g
       id="g6804"
       transform="matrix(-1.2493466,0.64080992,-0.64080992,-1.2493466,746.70827,435.97834)"><path
         style="fill:#077bb2;fill-opacity:1;fill-rule:nonzero;stroke:none"
         d="M 0,0 C 5.3651898,7.7845372 3.4362458,21.777447 -7.0634844,23.865359 -22.259061,26.326354 -32.442412,3.2281536 -20.418469,-6.3780625 -13.455635,-11.681936 -3.7410589,-6.8895935 0,0 Z"
         id="path6802" /></g><g
       id="g6820"
       transform="matrix(-1.2493466,0.64080992,-0.64080992,-1.2493466,731.05097,376.28763)"><path
         style="fill:#077bb2;fill-opacity:1;fill-rule:nonzero;stroke:none"
         d="M 0,0 C 5.4917811,6.8199584 2.6827649,19.251369 -6.707,20.626 -18.809369,22.953923 -28.700995,6.3415168 -20.28725,-2.933 -14.617152,-9.2678364 -4.2271894,-6.6118901 0,0 Z"
         id="path6818" /></g><g
       id="g6824"
       transform="matrix(-1.2493466,0.64080992,-0.64080992,-1.2493466,687.39257,493.01242)"><path
         style="fill:#04517d;fill-opacity:1;fill-rule:nonzero;stroke:none"
         d="M 0,0 C 4.04994,8.4001926 1.1910231,22.162279 -9.3804844,23.572922 -21.101048,23.802247 -26.355676,8.6491997 -22.15325,-0.7639375 -19.263368,-10.694949 -4.8468952,-11.128494 -0.87775,-1.725125 l 0.4593125,0.84882813 z"
         id="path6822" /></g><g
       id="g6840"
       transform="matrix(-1.2493466,0.64080992,-0.64080992,-1.2493466,684.70467,377.9724)"><path
         style="fill:#0381af;fill-opacity:1;fill-rule:nonzero;stroke:none"
         d="M 0,0 C 4.9667971,6.776208 -0.69453122,18.502609 -9.639625,16.496875 -19.420697,15.025628 -21.739638,-0.26999526 -12.557578,-4.1953125 -8.0531085,-6.3325951 -2.5040468,-4.1364785 0,0 Z"
         id="path6838" /></g><g
       id="g6844"
       transform="matrix(-1.2493466,0.64080992,-0.64080992,-1.2493466,689.46807,433.42907)"><path
         style="fill:#0381af;fill-opacity:1;fill-rule:nonzero;stroke:none"
         d="M 0,0 C 4.9351043,7.9010283 0.34419153,21.535434 -10.096,20.965 -23.07474,19.879178 -26.789048,-0.90384878 -14.823312,-6.2566094 -9.16606,-8.7846362 -2.6035043,-5.2444681 0,0 Z"
         id="path6842" /></g><g
       id="g6848"
       transform="matrix(-1.2493466,0.64080992,-0.64080992,-1.2493466,620.94567,522.93363)"><path
         style="fill:#077bb2;fill-opacity:1;fill-rule:nonzero;stroke:none"
         d="M 0,0 C 2.8648168,8.2853468 -0.84235806,21.002473 -10.760516,21.95775 -20.37545,21.311536 -22.910613,8.7237458 -19.894734,1.198375 -18.320473,-6.4617771 -7.4339698,-11.828139 -2.261,-4.31 -1.2353183,-3.0390217 -0.51393831,-1.5429189 0,0 Z"
         id="path6846" /></g><g
       id="g6864"
       transform="matrix(-1.2493466,0.64080992,-0.64080992,-1.2493466,647.58987,376.42806)"><path
         style="fill:#009ec5;fill-opacity:1;fill-rule:nonzero;stroke:none"
         d="M 0,0 C 5.855975,8.213412 -6.7193048,19.620874 -13.423875,11.292625 -20.654231,3.8348689 -9.0908545,-9.5900665 -1.348,-1.747 l 0.73025,0.83675 z"
         id="path6862" /></g><g
       id="g6868"
       transform="matrix(-1.2493466,0.64080992,-0.64080992,-1.2493466,646.40477,419.34314)"><path
         style="fill:#009ec5;fill-opacity:1;fill-rule:nonzero;stroke:none"
         d="M 0,0 C 4.4762661,7.2784452 -2.509501,19.523379 -11.467875,15.813 -20.926207,11.82376 -18.461235,-4.9945992 -7.882,-5.146 -4.5248474,-5.2069354 -1.4190438,-2.9714854 0,0 Z"
         id="path6866" /></g><g
       id="g6872"
       transform="matrix(-1.2493466,0.64080992,-0.64080992,-1.2493466,637.03807,471.77018)"><path
         style="fill:#077bb2;fill-opacity:1;fill-rule:nonzero;stroke:none"
         d="M 0,0 C 3.7817105,8.0039143 -1.272862,21.195057 -11.3585,20.06075 -24.182982,17.156992 -22.869162,-5.1454178 -9.9662031,-6.8515938 -5.4646287,-7.3173467 -1.5899822,-3.9917783 0,0 Z"
         id="path6870" /></g><g
       id="g6896"
       transform="matrix(-1.2493466,0.64080992,-0.64080992,-1.2493466,1514.4309,308.94753)"><g
         id="g6886" /><g
         id="g6894"><g
           clip-path="url(#clipPath1601)"
           id="g6892"
           style="opacity:0.10000598"><g
             transform="translate(597.4678,269.0899)"
             id="g6890"><path
               style="fill:#4bbec5;fill-opacity:1;fill-rule:nonzero;stroke:none"
               d="M 0,0 C 5.5844827,8.9048144 -11.873213,16.204361 -12.162,4.881 -12.409335,-1.2514351 -3.6803742,-6.1311214 0,0 Z"
               id="path6888" /></g></g></g></g><g
       id="g6908"
       transform="matrix(-1.2493466,0.64080992,-0.64080992,-1.2493466,1514.4309,308.94753)"><g
         id="g6898" /><g
         id="g6906"><g
           clip-path="url(#clipPath1617)"
           id="g6904"
           style="opacity:0.10000598"><g
             transform="translate(617.1595,268.2283)"
             id="g6902"><path
               style="fill:#70cfc2;fill-opacity:1;fill-rule:nonzero;stroke:none"
               d="M 0,0 C 3.5177998,6.1277651 -6.0596571,14.833493 -10.741,8.355 -14.859371,2.3444505 -5.2235961,-7.0124313 -0.32,-0.51 l 0.173,0.251 z"
               id="path6900" /></g></g></g></g><g
       id="g6912"
       transform="matrix(-1.2493466,0.64080992,-0.64080992,-1.2493466,547.22897,374.56251)"><path
         style="fill:#4bbec5;fill-opacity:1;fill-rule:nonzero;stroke:none"
         d="M 0,0 C 2.7125164,5.4382998 -4.965538,13.565762 -9.920875,8.66575 -14.282042,3.3925852 -5.8362845,-6.3941153 -0.59075,-0.912375 Z"
         id="path6910" /></g></g></svg>